<svg width="872" height="600" viewBox="0 0 872 600" fill="none" xmlns="http://www.w3.org/2000/svg">
<path d="M805.926 -26.6943C812.712 -19.5761 825.495 -29.637 835.096 -27.5062C848.062 -24.6285 870.398 -25.4081 871.397 -12.164C872.586 3.62096 838.788 5.82552 838.801 21.6552C838.817 39.3941 869.215 45.3358 871.462 62.9319C873.195 76.5064 862.005 96.8765 848.332 96.3062C827.387 95.4324 814.53 72.654 797.92 59.8641C792.348 55.5734 788.877 42.5201 782.601 45.6935C763.808 55.1958 759.514 89.2757 738.466 89.926C723.991 90.3733 740.864 61.4722 740.399 46.9974C740.153 39.3779 738.25 32.1263 736.368 24.7389C734.25 16.4264 725.772 8.62887 728.555 0.514664C731.386 -7.74175 745.149 -6.93623 749.769 -14.3417C755.477 -23.4902 752.178 -35.9289 757.232 -45.4538C764.248 -58.6755 770.8 -85.6812 784.767 -80.3004C802.891 -73.3181 792.525 -40.7524 805.926 -26.6943Z" fill="#6842FF"/>
<path opacity="0.5" d="M64.1985 100.041C84.785 132.051 51.3464 176.995 53.0222 218.964C55.2507 274.773 103.319 333.887 75.2018 375.6C47.3518 416.917 -6.04351 386.591 -43.7076 362.468C-73.2345 343.556 -90.8401 305.214 -99.8469 263.485C-107.432 228.342 -100.585 192.634 -87.2764 160.608C-74.0503 128.781 -54.8841 102.553 -28.6034 92.045C2.61611 79.562 43.0646 67.1803 64.1985 100.041Z" fill="#6842FF"/>
<path opacity="0.5" d="M364.716 627.531C342.898 640.041 308.43 629.136 278.268 633.978C238.158 640.416 198.484 668.11 166.674 659.321C135.165 650.616 153.75 623.286 168.83 603.742C180.652 588.421 207.219 576.657 236.759 568.49C261.635 561.613 287.807 561.271 311.721 564.239C335.487 567.187 355.58 573.393 364.774 584.374C375.697 597.418 387.114 614.688 364.716 627.531Z" fill="#6842FF"/>
<path opacity="0.5" d="M268.199 -217.959C288.785 -185.949 255.346 -141.005 257.022 -99.0363C259.251 -43.2266 307.319 15.887 279.202 57.5999C251.352 98.9169 197.957 68.591 160.292 44.4679C130.766 25.5565 113.16 -12.7858 104.153 -54.5155C96.568 -89.6581 103.415 -125.366 116.724 -157.392C129.95 -189.219 149.116 -215.447 175.397 -225.955C206.616 -238.438 247.065 -250.82 268.199 -217.959Z" fill="#6842FF"/>
</svg>
